# xmcd CD database file
#
# Track frame offsets:
#	150
#	30844
#	51606
#	76632
#	98414
#	123552
#	153040
#	186141
#	214984
#	234961
#	276296
#	312975
#
# Disc length: 4400 seconds
#
# Revision: 0
# Processed by: cddbd v1.5.2PL0 Copyright (c) Steve Scherf et al.
# Submitted via: CDex 1.70beta2
#
DISCID=92112e0c
DTITLE=Paquito d'Rivera - A Taste Of Paquito
DYEAR=1994
DGENRE=Jazz
TTITLE0=On Green Dolphin Street
TTITLE1=Song To My Son
TTITLE2=Miami
TTITLE3=Como Fue
TTITLE4=Manteca
TTITLE5=Claudia
TTITLE6=Just Kidding
TTITLE7=Brussels In The Rain
TTITLE8=Monk-tuno
TTITLE9=Zanaith
TTITLE10=Song For Maura
TTITLE11=Why Not
EXTD=YEAR: 1994
EXTT0=
EXTT1=
EXTT2=
EXTT3=
EXTT4=
EXTT5=
EXTT6=
EXTT7=
EXTT8=
EXTT9=
EXTT10=
EXTT11=
PLAYORDER=
